<svg xmlns="http://www.w3.org/2000/svg" viewBox="0 0 1798.48 1664"><defs><style>.cls-1{fill:#fefae0;}.cls-2{fill:#db7e21;}</style></defs><g id="Layer_1" data-name="Layer 1"><path class="cls-1" d="M121.78,244.15v507L92.24,780.29H43.12L13.94,751.11V283.68H50.69V737.06l12.6,12.61h8.78l13-12.61V260.72L75.31,251H38.8L13.94,227.58V40L42.76,10.42h49.7L121.64,40V195H84.9V53.65L72.29,41H62.93L50.69,53.65v157l9.36,9.72H96.57Z"/><path class="cls-1" d="M396.26,748.23v32.06H307.65V10.42h87.89V42.48H344.4V244.9h45.37V277H344.4V748.23Z"/><path class="cls-1" d="M677,772,652.5,796.5l-16.58-16.21h-51.5l-29.89-29.18V39.6l29.53-29.18h49.7L663.3,39.6V751.11l-3.6,3.6ZM626.56,53.65l-12.25-13H603.52l-12.25,13V737.06l12.25,13h10.79l12.25-13Z"/><path class="cls-1" d="M956,10.42V746.79l-29.18,33.5h-53.3l-29.18-33.5V10.42H881V735.26l12.6,14.41H907l12.25-14.41V10.42Z"/><path class="cls-1" d="M1140.7,751.11V39.6l29.54-29.18h49.7l29.54,29.18V751.11l-29.54,29.18h-49.7Zm59.79-1.08,12.24-13V53.65l-12.24-13h-10.8l-12.25,13V737.06l12.25,13Z"/><path class="cls-1" d="M1481,42.48V748.23h35.29v32.06H1408.93V748.23h35.3V42.48h-35.3V10.42h107.7V42.48Z"/><path class="cls-1" d="M1788.74,40V780.29H1755.6V388.19h-38.18v392.1h-33.14V40l29.18-29.54h45.74ZM1755.6,356.64v-303L1745,41H1728l-10.61,12.61v303Z"/><path class="cls-2" d="M79.91,839.94v391.63H61.22L32.63,910v321.61H13.94V839.94H41.06l20.16,224v-224Z"/><path class="cls-2" d="M207.22,855v376.61H190.37V1032.1H171v199.47H154.09V855l14.84-15H192.2Zm-16.85,161.09V861.93L185,855.51h-8.62L171,861.93v154.12Z"/><path class="cls-2" d="M325.09,839.94v16.31h-18v375.32H288.44V856.25H270.49V839.94Z"/><path class="cls-2" d="M415.06,856.25v359H433v16.31h-54.6v-16.31h18v-359h-18V839.94H433.2v16.31Z"/><path class="cls-2" d="M494.24,1216.72V854.78l15-14.84h25.28l15,14.84v361.94l-15,14.85H509.27Zm30.42-.55,6.23-6.59V861.93l-6.23-6.6h-5.5l-6.23,6.6v347.65l6.23,6.59Z"/><path class="cls-2" d="M689.32,839.94v391.63H670.63L642.05,910v321.61h-18.7V839.94h27.12l20.16,224v-224Z"/><path class="cls-2" d="M816.64,855v376.61H799.78V1032.1H780.36v199.47H763.5V855l14.84-15h23.27Zm-16.86,161.09V861.93l-5.41-6.42h-8.62l-5.39,6.42v154.12Z"/><path class="cls-2" d="M929.56,1215.26v16.31H891.09V839.94h18.69v375.32Z"/><path class="cls-2" d="M71.3,1275.78v163.47L56.46,1454.1H32.27v198.47H13.94V1260.94H56.27Zm-18.7,6.41-6.41-6.41H32.27v163.47H46.19l6.41-6.41Z"/><path class="cls-2" d="M190.79,1276v376.61H173.94V1453.1H154.52v199.47H137.66V1276l14.84-15h23.27Zm-16.85,161.09V1282.93l-5.42-6.42h-8.61l-5.39,6.42v154.12Z"/><path class="cls-2" d="M326.45,1652.57H307.57L292,1454.1h-8.43v198.47H265.25V1260.94h42.32l15,14.84v163.47L310,1451.9Zm-22.54-370.38-6.42-6.41H283.57v163.47h13.92l6.42-6.41Z"/><path class="cls-2" d="M448.42,1430.34l-10.92,10.92,10.92,10.92v200.38H429.73v-201H411v201H392.35V1260.94H411v173.91h18.69V1260.94h18.69Z"/></g></svg>